<svg id="Layer_3" height="40" viewBox="0 0 64 64" width="40" fill="#72683F" xmlns="http://www.w3.org/2000/svg" data-name="Layer 3"><path d="m60 1h-56a3 3 0 0 0 -3 3v38a3 3 0 0 0 3 3h21v10a1 1 0 0 0 1.707.707l2.293-2.293v8.586a1 1 0 0 0 1.707.707l3.293-3.293 3.293 3.293a1 1 0 0 0 .707.293.987.987 0 0 0 .383-.076 1 1 0 0 0 .617-.924v-17h21a3 3 0 0 0 3-3v-38a3 3 0 0 0 -3-3zm-29.976 43.248a3.775 3.775 0 0 0 -2.379-1.015 2.972 2.972 0 0 1 -2.878-2.878 3.775 3.775 0 0 0 -1.015-2.379 2.972 2.972 0 0 1 0-3.952 3.775 3.775 0 0 0 1.015-2.38 2.972 2.972 0 0 1 2.878-2.877 3.775 3.775 0 0 0 2.379-1.015 3.045 3.045 0 0 1 3.952 0 3.775 3.775 0 0 0 2.379 1.015 2.972 2.972 0 0 1 2.878 2.877 3.775 3.775 0 0 0 1.015 2.38 2.972 2.972 0 0 1 0 3.952 3.775 3.775 0 0 0 -1.015 2.379 2.972 2.972 0 0 1 -2.878 2.878 3.775 3.775 0 0 0 -2.379 1.015 3.045 3.045 0 0 1 -3.952 0zm11.72-11.548a1.851 1.851 0 0 1 -.513-1.119 4.969 4.969 0 0 0 -4.809-4.808 1.849 1.849 0 0 1 -1.118-.513 5.1 5.1 0 0 0 -6.608 0 1.849 1.849 0 0 1 -1.118.513 4.969 4.969 0 0 0 -4.809 4.808 1.851 1.851 0 0 1 -.513 1.119 4.928 4.928 0 0 0 -.224 6.3h-11.132a5.013 5.013 0 0 0 -3.9-3.9v-24.2a5.013 5.013 0 0 0 3.9-3.9h42.2a5.013 5.013 0 0 0 3.9 3.9v24.2a5.013 5.013 0 0 0 -3.9 3.9h-11.132a4.928 4.928 0 0 0 -.224-6.3zm-14.744 12.458a4.856 4.856 0 0 0 .578.073 1.849 1.849 0 0 1 1.118.513 4.974 4.974 0 0 0 3.304 1.256 4.917 4.917 0 0 0 1-.11v5.7l-2.293-2.293a1 1 0 0 0 -1.414 0l-2.293 2.289zm7.707 12.135a1 1 0 0 0 -1.414 0l-2.293 2.293v-6.172l2.293 2.293a1 1 0 0 0 .707.293.987.987 0 0 0 .383-.076 1 1 0 0 0 .617-.924v-9h-.044c.116-.086.239-.16.348-.256a1.849 1.849 0 0 1 1.118-.513 4.856 4.856 0 0 0 .578-.073v14.428zm26.293-15.293a1 1 0 0 1 -1 1h-19.593a4.939 4.939 0 0 0 .751-2h12.842a1 1 0 0 0 1-1 3 3 0 0 1 3-3 1 1 0 0 0 1-1v-26a1 1 0 0 0 -1-1 3 3 0 0 1 -3-3 1 1 0 0 0 -1-1h-44a1 1 0 0 0 -1 1 3 3 0 0 1 -3 3 1 1 0 0 0 -1 1v26a1 1 0 0 0 1 1 3 3 0 0 1 3 3 1 1 0 0 0 1 1h12.842a4.939 4.939 0 0 0 .751 2h-19.593a1 1 0 0 1 -1-1v-38a1 1 0 0 1 1-1h56a1 1 0 0 1 1 1z"/><path d="m32 30a6 6 0 1 0 6 6 6.006 6.006 0 0 0 -6-6zm0 10a4 4 0 1 1 4-4 4 4 0 0 1 -4 4z"/><path d="m23 9h18v2h-18z"/><path d="m17 13h30v2h-30z"/><path d="m13 17h38v2h-38z"/><path d="m45 35h6v2h-6z"/><path d="m13 35h6v2h-6z"/></svg>