<svg id="Layer_35" enable-background="new 0 0 64 64" height="512" viewBox="0 0 64 64" width="512" xmlns="http://www.w3.org/2000/svg"><g fill="#f0bc5e"><path d="m12 24c-.428 0-.847.036-1.26.088l-.775 9.291 3.035 3.035 3.035-3.035-.782-9.379h-2.253z"/><path d="m56 29h-2c-1.654 0-3-1.346-3-3v-3h5c1.654 0 3 1.346 3 3s-1.346 3-3 3z"/><path d="m27 11h-5c-1.654 0-3-1.346-3-3s1.346-3 3-3h2c1.654 0 3 1.346 3 3z"/><path d="m53 6h6v12h-6z"/></g><path d="m15 1v10.295c-.634-.19-1.305-.295-2-.295-3.859 0-7 3.14-7 7 0 2.237 1.058 4.226 2.696 5.509-4.456 1.406-7.696 5.577-7.696 10.491v7c0 2.206 1.794 4 4 4h1v14c0 2.206 1.794 4 4 4 1.201 0 2.266-.542 3-1.382.734.84 1.799 1.382 3 1.382 2.206 0 4-1.794 4-4v-24.735c0-.433.056-.857.162-1.265h42.838v-32zm-7 17c0-2.757 2.243-5 5-5s5 2.243 5 5-2.243 5-5 5-5-2.243-5-5zm10 16.265v24.735c0 1.103-.897 2-2 2s-2-.897-2-2v-18h-2v18c0 1.103-.897 2-2 2s-2-.897-2-2v-27h-2v11h-1c-1.103 0-2-.897-2-2v-7c0-4.962 4.037-9 9-9h6.302c1.297 0 2.565-.359 3.669-1.039l10.99-6.763c.211-.13.453-.198.701-.198.737 0 1.338.601 1.338 1.338v.39c0 .456-.229.875-.611 1.124l-13.192 8.536c-2.002 1.295-3.197 3.492-3.197 5.877zm11-17.265c0-5.177 3.954-9.446 9-9.949v10.363l7.324 7.324c-1.725 1.412-3.927 2.262-6.324 2.262-2.762 0-5.336-1.113-7.216-3.081l3.691-2.388c.955-.618 1.525-1.666 1.525-2.803v-.39c0-1.84-1.497-3.338-3.338-3.338-.618 0-1.224.171-1.75.495l-2.9 1.784c-.002-.093-.012-.186-.012-.279zm17.738 6.324-5.324-5.324h7.535c-.2 2.008-.998 3.843-2.211 5.324zm-6.738-7.324v-8.949c4.717.471 8.479 4.232 8.949 8.949zm21 15h-39.78c.306-.354.659-.672 1.063-.934l7.807-5.052c2.276 2.536 5.467 3.986 8.91 3.986 6.617 0 12-5.383 12-12s-5.383-12-12-12-12 5.383-12 12c0 .487.04.974.099 1.457l-6.177 3.801c-.788.486-1.694.742-2.62.742h-.412c1.3-1.272 2.11-3.042 2.11-5 0-2.373-1.189-4.47-3-5.736v-9.264h44z"/><path d="m55.975 47.755c1.825-1.265 3.025-3.372 3.025-5.755 0-3.859-3.141-7-7-7s-7 3.141-7 7c0 2.383 1.2 4.49 3.025 5.755-2.673 1.041-4.837 3.093-6.025 5.689-1.188-2.596-3.352-4.649-6.025-5.689 1.825-1.265 3.025-3.372 3.025-5.755 0-3.859-3.141-7-7-7s-7 3.141-7 7c0 2.383 1.2 4.49 3.025 5.755-4.104 1.598-7.025 5.582-7.025 10.245v5h20 2 20v-5c0-4.663-2.921-8.647-7.025-10.245zm-8.975-5.755c0-2.757 2.243-5 5-5s5 2.243 5 5-2.243 5-5 5-5-2.243-5-5zm-20 0c0-2.757 2.243-5 5-5s5 2.243 5 5-2.243 5-5 5-5-2.243-5-5zm14 19h-3v-8h-2v8h-8v-8h-2v8h-3v-3c0-4.963 4.037-9 9-9s9 4.037 9 9zm20 0h-3v-8h-2v8h-8v-8h-2v8h-3v-3c0-4.963 4.037-9 9-9s9 4.037 9 9z"/><path d="m53 5h6v2h-6z"/><path d="m53 9h6v2h-6z"/><path d="m53 13h6v2h-6z"/><path d="m53 17h6v2h-6z"/></svg>